<?xml version="1.0" standalone="no"?>
<!DOCTYPE svg PUBLIC "-//W3C//DTD SVG 20010904//EN"
 "http://www.w3.org/TR/2001/REC-SVG-20010904/DTD/svg10.dtd">
<svg version="1.0" xmlns="http://www.w3.org/2000/svg"
 width="500.000000pt" height="500.000000pt" viewBox="0 0 500.000000 500.000000"
 preserveAspectRatio="xMidYMid meet">
<metadata>
Created by potrace 1.14, written by Peter Selinger 2001-2017
</metadata>
<g transform="translate(0.000000,500.000000) scale(0.100000,-0.100000)"
fill="#000000" stroke="none">
<path d="M0 2500 l0 -2500 2500 0 2500 0 0 2500 0 2500 -2500 0 -2500 0 0
-2500z m1547 1228 l93 -93 0 93 0 92 30 0 30 0 0 -124 c0 -134 -4 -156 -27
-156 -9 0 -58 41 -109 92 l-94 92 0 -92 c0 -91 0 -92 -25 -92 l-25 0 0 133 c0
74 3 137 7 140 15 15 32 3 120 -85z m243 -18 l0 -110 80 0 79 0 3 108 3 107
28 3 27 3 0 -122 c0 -161 1 -159 -137 -159 -142 0 -143 1 -143 160 l0 120 30
0 30 0 0 -110z m310 0 l0 -109 113 -3 112 -3 3 -27 3 -28 -122 0 c-163 0 -159
-4 -159 157 l0 123 25 0 25 0 0 -110z m320 0 l0 -110 110 0 110 0 0 -30 0 -30
-120 0 c-107 0 -122 2 -140 20 -18 18 -20 33 -20 140 l0 120 30 0 30 0 0 -110z
m512 93 c13 -12 18 -30 18 -69 0 -73 -17 -84 -132 -84 l-88 0 0 -55 c0 -54 0
-55 -30 -55 l-30 0 0 140 0 140 122 0 c99 0 125 -3 140 -17z m108 -93 l0 -110
30 0 30 0 0 110 0 110 30 0 30 0 0 -110 0 -110 25 0 25 0 0 110 0 110 30 0 30
0 0 -120 c0 -159 -1 -160 -142 -160 -139 0 -138 -2 -138 157 l0 123 25 0 25 0
0 -110z m385 20 l90 -91 5 88 c5 87 5 88 33 91 l27 3 0 -136 c0 -115 -2 -137
-16 -142 -11 -4 -45 23 -110 88 l-94 94 0 -93 0 -92 -30 0 -30 0 0 128 c0 119
6 152 30 152 3 0 46 -41 95 -90z m-1480 -879 c-6 -5 -111 -58 -235 -116 -124
-59 -225 -108 -226 -109 -4 -6 51 -597 62 -666 13 -77 45 -191 74 -261 32 -80
35 -89 21 -89 -4 0 -27 40 -49 88 -40 87 -71 184 -91 292 -8 43 -43 398 -64
655 l-2 29 250 93 c251 93 277 101 260 84z m1133 -697 c2 -12 -16 -49 -42 -87
-24 -37 -40 -67 -35 -67 5 0 9 -14 9 -32 0 -24 -10 -40 -42 -71 l-43 -40 40
23 40 24 -20 -24 -20 -23 22 12 c33 17 38 13 17 -11 -10 -13 -12 -17 -4 -10
34 30 30 8 -5 -28 -44 -45 -37 -55 9 -12 29 26 29 26 13 2 -10 -14 -25 -38
-35 -54 -28 -48 -71 -94 -110 -118 l-36 -22 35 -9 c19 -5 40 -14 47 -20 10 -8
20 -2 43 26 43 52 61 54 135 16 l64 -32 -20 -22 c-11 -12 -17 -24 -14 -28 3
-3 -8 -23 -25 -44 -26 -33 -63 -104 -92 -180 -18 -47 1 -20 41 57 43 81 106
162 143 181 16 9 23 8 34 -7 17 -23 16 -56 -2 -129 -31 -119 -137 -306 -189
-335 -46 -24 -61 -11 -66 60 -5 64 -5 64 -13 25 -13 -64 -19 -70 -58 -50 -71
37 -91 56 -86 83 4 21 -4 34 -42 68 l-46 42 -27 -19 c-44 -32 -107 -49 -179
-49 -71 0 -155 24 -188 54 -16 14 -20 13 -51 -19 -19 -19 -38 -35 -42 -35 -15
0 -8 33 9 45 16 12 16 18 5 62 -7 26 -30 85 -52 130 -33 66 -44 80 -59 76 -39
-10 -32 18 8 35 37 15 54 32 32 32 -31 0 -174 170 -157 187 3 3 1 12 -5 19
-13 16 -4 50 16 58 9 3 12 0 9 -8 -3 -8 -1 -17 5 -21 7 -4 8 1 4 12 -6 16 -5
17 12 3 13 -11 11 -4 -8 25 -35 54 -45 95 -22 95 14 0 12 5 -9 31 -31 36 -60
89 -53 96 4 4 155 -18 318 -46 25 -4 117 -7 205 -6 174 1 290 21 452 75 100
33 126 34 130 4z m-1023 -540 c22 -25 57 -73 78 -107 22 -35 36 -51 33 -37 -3
14 8 -3 25 -37 16 -34 32 -79 35 -100 4 -38 4 -38 -16 12 -22 55 -22 63 1 -88
6 -37 9 -74 6 -81 -3 -7 -37 -29 -76 -50 l-71 -37 0 26 c0 15 -4 24 -10 20 -5
-3 -10 -15 -10 -25 0 -50 -46 -35 -98 33 -76 98 -140 248 -149 349 -5 48 -3
59 11 64 39 15 147 -124 204 -261 19 -46 30 -65 26 -45 -16 85 -94 230 -155
289 -27 26 -37 41 -29 46 6 4 17 2 23 -4 9 -9 7 -10 -8 -5 -21 8 -21 6 9 -16
11 -8 17 -10 13 -3 -4 6 -3 15 3 18 8 5 7 12 -2 23 -10 12 -10 14 0 8 6 -4 12
-3 12 2 0 8 83 51 100 52 3 0 23 -21 45 -46z m1120 -34 c-3 -5 -16 -15 -28
-21 -21 -10 -21 -9 2 10 25 23 36 27 26 11z"/>
<path d="M2730 3735 c0 -25 1 -25 85 -25 84 0 85 0 85 25 0 25 -1 25 -85 25
-84 0 -85 0 -85 -25z"/>
<path d="M2641 2035 c-34 -25 -74 -63 -89 -85 -15 -21 -29 -39 -32 -39 -3 0
-17 17 -32 39 -27 40 -134 127 -144 117 -3 -3 9 -33 26 -67 l31 -61 -43 25
c-44 26 -198 79 -261 91 l-36 7 12 -28 c49 -113 61 -128 131 -164 67 -34 72
-35 165 -32 176 6 206 5 277 -3 131 -14 246 39 290 135 14 30 30 63 36 74 9
17 7 18 -27 12 -65 -13 -219 -66 -263 -92 l-43 -25 36 70 c19 39 33 71 31 71
-2 0 -31 -20 -65 -45z"/>
<path d="M2289 1811 c-54 -8 -77 -24 -94 -66 -29 -70 -29 -70 27 -116 37 -30
44 -34 26 -13 -33 36 -37 55 -6 28 l22 -19 -17 27 c-18 28 -13 63 7 51 6 -4 4
2 -4 12 -14 17 -13 18 4 12 16 -6 17 -5 6 8 -17 21 -8 28 68 55 34 13 62 24
62 26 0 5 -44 3 -101 -5z"/>
<path d="M2689 1800 c24 -11 54 -23 68 -26 15 -4 22 -12 19 -20 -3 -8 -1 -14
5 -14 6 0 7 -4 4 -10 -20 -32 -12 -56 18 -51 13 2 8 -12 -13 -34 -11 -12 -23
-32 -25 -45 l-4 -23 24 23 c13 13 22 26 20 31 -3 4 0 11 6 15 8 4 9 3 5 -4
-13 -21 10 -13 33 12 22 23 22 23 4 71 -24 64 -52 82 -138 89 l-70 6 44 -20z"/>
<path d="M2445 1641 c-191 -86 -129 -361 81 -361 69 0 133 41 164 104 47 98 9
203 -90 254 -53 27 -101 28 -155 3z m157 -53 c30 -21 53 -56 44 -66 -3 -3 -6
0 -6 6 0 6 -14 24 -31 41 -57 57 -155 37 -198 -39 -12 -21 -21 -46 -21 -56 1
-11 7 -1 15 21 31 89 129 124 194 70 16 -14 33 -35 36 -46 4 -10 11 -17 16
-14 15 10 10 -63 -6 -95 -64 -124 -249 -91 -263 48 -12 126 118 203 220 130z"/>
<path d="M2467 1549 c-25 -15 -47 -70 -40 -100 27 -111 183 -87 183 27 0 38
-51 84 -92 84 -18 0 -41 -5 -51 -11z"/>
<path d="M2201 1515 c17 -31 42 -88 54 -128 18 -55 25 -67 31 -53 16 42 -62
227 -99 234 -15 3 -13 -5 14 -53z"/>
<path d="M2832 1558 c-41 -52 -90 -194 -77 -225 5 -13 11 -4 21 34 7 29 29 84
49 122 19 39 35 73 35 76 0 10 -18 5 -28 -7z"/>
<path d="M2872 1548 c-37 -47 -100 -217 -87 -238 11 -17 23 -2 30 38 3 21 26
77 50 125 28 56 39 87 30 87 -7 0 -17 -6 -23 -12z"/>
<path d="M3140 1483 c-73 -84 -162 -299 -145 -353 19 -58 90 14 159 161 24 52
50 119 56 151 22 100 -4 115 -70 41z"/>
<path d="M1824 1506 c-24 -62 133 -386 187 -386 40 0 12 118 -63 263 -58 111
-109 162 -124 123z"/>
</g>
</svg>
